<svg width="32" height="32" viewBox="0 0 32 32" fill="none" xmlns="http://www.w3.org/2000/svg">
<g id="star_24dp_5F6368_FILL1_wght300_GRAD0_opsz24 1">
<path id="Vector" d="M16 22.2494L10.813 25.3774C10.6197 25.4903 10.426 25.5377 10.232 25.5197C10.038 25.5017 9.86246 25.4364 9.70534 25.3237C9.54801 25.2108 9.42657 25.0634 9.34101 24.8814C9.25568 24.6994 9.24201 24.498 9.30001 24.2774L10.677 18.3877L6.09768 14.4237C5.92657 14.275 5.81757 14.1028 5.77068 13.907C5.72357 13.7113 5.7359 13.521 5.80768 13.3364C5.87946 13.1519 5.9829 13.0011 6.11801 12.884C6.25312 12.7669 6.43779 12.6904 6.67201 12.6544L12.7153 12.1264L15.0617 6.5647C15.147 6.35781 15.2765 6.20481 15.45 6.1057C15.6236 6.00659 15.8069 5.95703 16 5.95703C16.1931 5.95703 16.3765 6.00659 16.55 6.1057C16.7236 6.20481 16.853 6.35781 16.9383 6.5647L19.2847 12.1264L25.328 12.6544C25.5622 12.6904 25.7469 12.7669 25.882 12.884C26.0171 13.0011 26.1206 13.1519 26.1923 13.3364C26.2641 13.521 26.2765 13.7113 26.2293 13.907C26.1825 14.1028 26.0735 14.275 25.9023 14.4237L21.323 18.3877L22.7 24.2774C22.758 24.498 22.7443 24.6994 22.659 24.8814C22.5735 25.0634 22.452 25.2108 22.2947 25.3237C22.1376 25.4364 21.962 25.5017 21.768 25.5197C21.574 25.5377 21.3803 25.4903 21.187 25.3774L16 22.2494Z" fill="#FF404B"/>
</g>
</svg>
