<svg width="56" height="56" viewBox="0 0 56 56" fill="none" xmlns="http://www.w3.org/2000/svg">
    <rect x="4" y="4" width="48" height="48" rx="24" fill="#D1FADF"></rect>
    <rect x="4" y="4" width="48" height="48" rx="24" stroke="#ECFDF3" stroke-width="8"></rect>
    <path
        d="M18.5411 22.6065H21.3427C21.5271 23.3165 21.942 23.9451 22.5223 24.3939C23.1026 24.8426 23.8153 25.0861 24.5489 25.0861C25.2824 25.0861 25.9952 24.8426 26.5755 24.3939C27.1557 23.9451 27.5706 23.3165 27.7551 22.6065H38.2753C38.4725 22.5912 38.6567 22.502 38.791 22.3568C38.9253 22.2116 38.9999 22.0211 38.9999 21.8233C38.9999 21.6255 38.9253 21.435 38.791 21.2898C38.6567 21.1446 38.4725 21.0554 38.2753 21.0401H27.7551C27.5706 20.3301 27.1557 19.7015 26.5755 19.2528C25.9952 18.804 25.2824 18.5605 24.5489 18.5605C23.8153 18.5605 23.1026 18.804 22.5223 19.2528C21.942 19.7015 21.5271 20.3301 21.3427 21.0401H18.5411C18.3439 21.0554 18.1597 21.1446 18.0254 21.2898C17.891 21.435 17.8164 21.6255 17.8164 21.8233C17.8164 22.0211 17.891 22.2116 18.0254 22.3568C18.1597 22.502 18.3439 22.5912 18.5411 22.6065ZM24.5512 20.0794C24.8968 20.0794 25.2346 20.182 25.5219 20.374C25.8092 20.5661 26.033 20.8391 26.165 21.1585C26.2971 21.4779 26.3314 21.8292 26.2636 22.1681C26.1958 22.507 26.0291 22.8181 25.7844 23.0622C25.5397 23.3062 25.2281 23.4721 24.889 23.539C24.55 23.6058 24.1987 23.5706 23.8797 23.4377C23.5607 23.3048 23.2883 23.0802 23.097 22.7924C22.9057 22.5046 22.804 22.1665 22.805 21.821C22.8062 21.3586 22.9908 20.9157 23.3181 20.5892C23.6455 20.2627 24.0889 20.0794 24.5512 20.0794Z"
        fill="#039855"></path>
    <path
        d="M38.2753 27.6612H35.4737C35.2892 26.9512 34.8743 26.3226 34.294 25.8738C33.7138 25.4251 33.001 25.1816 32.2675 25.1816C31.5339 25.1816 30.8211 25.4251 30.2409 25.8738C29.6606 26.3226 29.2457 26.9512 29.0612 27.6612H18.5411C18.3439 27.6765 18.1597 27.7657 18.0254 27.9109C17.891 28.0561 17.8164 28.2466 17.8164 28.4444C17.8164 28.6422 17.891 28.8327 18.0254 28.9779C18.1597 29.1231 18.3439 29.2123 18.5411 29.2276H29.0612C29.2457 29.9376 29.6606 30.5662 30.2409 31.015C30.8211 31.4637 31.5339 31.7072 32.2675 31.7072C33.001 31.7072 33.7138 31.4637 34.294 31.015C34.8743 30.5662 35.2892 29.9376 35.4737 29.2276H38.2753C38.4725 29.2123 38.6567 29.1231 38.791 28.9779C38.9253 28.8327 38.9999 28.6422 38.9999 28.4444C38.9999 28.2466 38.9253 28.0561 38.791 27.9109C38.6567 27.7657 38.4725 27.6765 38.2753 27.6612ZM32.2651 30.193C31.9197 30.193 31.5821 30.0906 31.2949 29.8987C31.0078 29.7069 30.7839 29.4341 30.6518 29.115C30.5196 28.796 30.485 28.4448 30.5524 28.1061C30.6198 27.7674 30.7861 27.4562 31.0303 27.212C31.2745 26.9678 31.5857 26.8014 31.9244 26.7341C32.2632 26.6667 32.6143 26.7013 32.9334 26.8334C33.2525 26.9656 33.5252 27.1894 33.7171 27.4766C33.909 27.7638 34.0114 28.1014 34.0114 28.4468C34.0114 28.9099 33.8274 29.3541 33.4999 29.6816C33.1724 30.0091 32.7282 30.193 32.2651 30.193Z"
        fill="#039855"></path>
    <path
        d="M38.2753 34.2813H27.7551C27.5706 33.5714 27.1557 32.9427 26.5755 32.494C25.9952 32.0452 25.2824 31.8018 24.5489 31.8018C23.8153 31.8018 23.1026 32.0452 22.5223 32.494C21.942 32.9427 21.5271 33.5714 21.3427 34.2813H18.5411C18.3439 34.2967 18.1597 34.3858 18.0254 34.531C17.891 34.6762 17.8164 34.8667 17.8164 35.0645C17.8164 35.2623 17.891 35.4529 18.0254 35.598C18.1597 35.7432 18.3439 35.8324 18.5411 35.8477H21.3427C21.5271 36.5577 21.942 37.1863 22.5223 37.6351C23.1026 38.0838 23.8153 38.3273 24.5489 38.3273C25.2824 38.3273 25.9952 38.0838 26.5755 37.6351C27.1557 37.1863 27.5706 36.5577 27.7551 35.8477H38.2753C38.4725 35.8324 38.6567 35.7432 38.791 35.598C38.9253 35.4529 38.9999 35.2623 38.9999 35.0645C38.9999 34.8667 38.9253 34.6762 38.791 34.531C38.6567 34.3858 38.4725 34.2967 38.2753 34.2813ZM24.5512 36.8132C24.2057 36.8132 23.8679 36.7106 23.5806 36.5185C23.2933 36.3264 23.0695 36.0534 22.9375 35.7341C22.8054 35.4147 22.7711 35.0633 22.8389 34.7245C22.9067 34.3856 23.0734 34.0745 23.3181 33.8304C23.5628 33.5864 23.8744 33.4205 24.2135 33.3536C24.5525 33.2868 24.9038 33.322 25.2228 33.4549C25.5418 33.5878 25.8142 33.8124 26.0055 34.1002C26.1968 34.388 26.2984 34.726 26.2975 35.0716C26.2963 35.5339 26.1117 35.9769 25.7844 36.3034C25.457 36.6298 25.0136 36.8132 24.5512 36.8132Z"
        fill="#039855"></path>
</svg>